<?xml version="1.0" standalone="no"?><!DOCTYPE svg PUBLIC "-//W3C//DTD SVG 1.1//EN" "http://www.w3.org/Graphics/SVG/1.1/DTD/svg11.dtd"><svg t="1526275355798" class="icon" style="" viewBox="0 0 1024 1024" version="1.1" xmlns="http://www.w3.org/2000/svg" p-id="6435" xmlns:xlink="http://www.w3.org/1999/xlink" width="128" height="128"><defs><style type="text/css"></style></defs><path d="M64.86431 855.841116c0 55.658647 36.274158 101.225449 80.648808 101.225449l734.2355 0c44.418652 0 80.715323-45.566802 80.715323-101.225449L960.463941 394.652362 64.86431 394.652362" p-id="6436"></path><path d="M879.735315 64.193021 145.499815 64.193021c-44.352137 0-80.649831 45.545312-80.649831 101.20396l0 113.063055 895.622144 0L960.472128 165.396981C960.472128 109.738333 924.152944 64.193021 879.735315 64.193021" p-id="6437"></path><path d="M384.930953 686.284395c0 6.837732-4.402263 12.386098-9.8176 12.386098L264.85825 698.670493c-5.436826 0-9.795087-5.547343-9.795087-12.386098l0-5.722328c0-6.836709 4.358261-12.386098 9.795087-12.386098l110.25408 0c5.415336 0 9.8176 5.54939 9.8176 12.386098L384.92993 686.284395z" p-id="6438"></path><path d="M577.618487 686.284395c0 6.837732-4.402263 12.386098-9.8176 12.386098L457.546807 698.670493c-5.436826 0-9.795087-5.547343-9.795087-12.386098l0-5.722328c0-6.836709 4.358261-12.386098 9.795087-12.386098l110.25408 0c5.415336 0 9.8176 5.54939 9.8176 12.386098L577.618487 686.284395z" p-id="6439"></path><path d="M769.573333 686.284395c0 6.837732-4.402263 12.386098-9.8176 12.386098L649.500631 698.670493c-5.436826 0-9.795087-5.547343-9.795087-12.386098l0-5.722328c0-6.836709 4.358261-12.386098 9.795087-12.386098l110.25408 0c5.415336 0 9.8176 5.54939 9.8176 12.386098L769.57231 686.284395z" p-id="6440"></path></svg>